<svg width="22" height="23" viewBox="0 0 22 23" fill="none" xmlns="http://www.w3.org/2000/svg">
<path d="M10.206 22.7195C10.6361 22.7096 11.0488 22.548 11.3711 22.2631C11.6934 21.9783 11.9046 21.5886 11.9674 21.163H8.37646C8.44096 21.6002 8.66205 21.999 8.99859 22.2853C9.33514 22.5716 9.76423 22.7259 10.206 22.7195V22.7195Z" fill="black"/>
<path d="M20.3438 18.5211L20.1117 18.3163C19.4532 17.7296 18.8768 17.0568 18.3982 16.316C17.8754 15.2937 17.5621 14.1774 17.4766 13.0323V9.65991C17.4738 9.25027 17.4373 8.84156 17.3673 8.43792C16.211 8.20024 15.1722 7.57025 14.427 6.65461C13.6818 5.73898 13.276 4.59396 13.2781 3.41341V2.98332C12.5653 2.63255 11.7995 2.40189 11.0116 2.30064V1.44047C11.0116 1.19875 10.9156 0.966943 10.7447 0.796027C10.5737 0.625111 10.3419 0.529091 10.1002 0.529091C9.85851 0.529091 9.6267 0.625111 9.45579 0.796027C9.28487 0.966943 9.18885 1.19875 9.18885 1.44047V2.33477C7.42462 2.58365 5.80998 3.46238 4.64305 4.80876C3.47611 6.15513 2.83566 7.87822 2.83994 9.65991V13.0323C2.75444 14.1774 2.44111 15.2937 1.91833 16.316C1.44788 17.0549 0.880788 17.7276 0.232111 18.3163L0 18.5211V20.4462H20.3438V18.5211Z" fill="black"/>
<path d="M18.3983 6.82678C20.2834 6.82678 21.8116 5.29856 21.8116 3.41339C21.8116 1.52823 20.2834 0 18.3983 0C16.5131 0 14.9849 1.52823 14.9849 3.41339C14.9849 5.29856 16.5131 6.82678 18.3983 6.82678Z" fill="#FF0101"/>
</svg>
