<?xml version="1.0" standalone="no"?>
<!DOCTYPE svg PUBLIC "-//W3C//DTD SVG 20010904//EN"
 "http://www.w3.org/TR/2001/REC-SVG-20010904/DTD/svg10.dtd">
<svg version="1.0" xmlns="http://www.w3.org/2000/svg"
 width="512.000000pt" height="512.000000pt" viewBox="0 0 512.000000 512.000000"
 preserveAspectRatio="xMidYMid meet">

<g transform="translate(0.000000,512.000000) scale(0.100000,-0.100000)"
fill="#000000" stroke="none">
<path d="M715 5026 c-189 -43 -359 -150 -469 -296 -63 -82 -92 -138 -128 -242
-31 -88 -32 -100 -33 -243 0 -130 3 -160 23 -225 96 -302 321 -505 630 -566
192 -37 408 6 577 117 l72 47 191 -192 191 -191 -45 -60 c-96 -127 -173 -315
-195 -481 -10 -75 -8 -220 3 -308 3 -16 -38 -30 -342 -112 -190 -51 -347 -93
-350 -93 -3 0 -22 24 -42 53 -42 60 -104 105 -187 137 -82 31 -213 24 -296
-16 -76 -36 -153 -113 -191 -190 -26 -55 -29 -69 -29 -165 0 -93 3 -111 27
-163 53 -112 134 -183 252 -219 237 -72 480 97 503 350 l5 57 332 89 c182 49
338 91 348 94 12 3 26 -17 56 -81 51 -110 110 -195 191 -281 61 -63 177 -159
204 -169 8 -3 -19 -67 -73 -176 -64 -130 -88 -170 -100 -165 -32 12 -115 24
-169 24 -194 -1 -403 -129 -488 -300 -114 -228 -75 -480 101 -656 316 -316
849 -154 942 286 42 199 -32 405 -194 542 l-33 27 82 163 c45 90 83 165 85
167 3 3 35 -5 72 -17 314 -101 660 -46 927 146 l70 50 191 -190 192 -191 -48
-73 c-208 -318 -159 -739 117 -1005 108 -104 214 -164 363 -205 99 -27 292
-25 393 4 151 43 250 101 360 209 267 263 312 683 107 996 -176 271 -502 412
-812 353 -104 -20 -223 -68 -299 -121 l-64 -45 -192 192 -192 192 23 31 c120
158 200 354 221 548 l6 57 42 0 c23 0 206 7 407 15 200 8 364 13 365 12 6 -30
60 -109 97 -142 117 -105 298 -103 421 4 20 18 51 62 68 97 61 124 38 261 -59
357 -168 165 -437 107 -522 -113 -7 -19 -14 -36 -15 -38 -3 -3 -694 -31 -771
-32 l-42 0 -7 47 c-22 146 -102 333 -194 455 -47 61 -147 162 -223 223 l-37
30 76 137 c74 133 76 136 101 127 14 -6 60 -13 101 -16 272 -21 511 205 511
482 -1 220 -163 419 -380 466 -71 15 -192 7 -262 -19 -227 -81 -363 -335 -303
-565 21 -83 60 -153 117 -213 l49 -52 -71 -128 c-39 -71 -74 -132 -78 -136 -4
-3 -52 9 -107 27 -320 107 -675 50 -942 -150 l-58 -44 -191 191 -192 191 46
71 c155 239 173 535 48 789 -99 203 -269 347 -491 417 -89 28 -298 37 -390 16z
m319 -166 c283 -72 485 -329 486 -618 0 -125 -48 -273 -124 -377 l-36 -50 0
40 c0 59 -26 149 -61 216 -29 55 -119 151 -164 177 -17 9 -18 14 -8 29 68 98
88 197 59 296 -23 78 -86 154 -161 192 -52 26 -69 30 -144 30 -101 0 -160 -23
-226 -89 -64 -64 -89 -126 -89 -221 -1 -68 3 -88 26 -135 15 -30 33 -63 40
-73 11 -15 10 -20 -7 -29 -45 -26 -135 -122 -164 -177 -35 -67 -61 -157 -61
-216 l0 -40 -36 50 c-50 69 -92 162 -109 246 -96 457 327 865 779 749z m-91
-234 c103 -43 128 -177 48 -257 -112 -113 -296 -12 -267 146 18 94 128 150
219 111z m2632 -177 c63 -30 123 -90 155 -154 35 -71 35 -197 0 -270 -31 -64
-91 -124 -155 -155 -73 -35 -199 -35 -270 0 -64 31 -124 91 -155 155 -35 71
-35 197 0 270 42 86 123 152 215 176 54 14 156 3 210 -22z m-2597 -305 c74
-24 140 -79 179 -149 18 -33 33 -63 33 -67 0 -5 -139 -8 -310 -8 -171 0 -310
2 -310 5 0 2 5 17 12 32 68 159 237 238 396 187z m277 -420 c-165 -120 -373
-152 -571 -90 -74 24 -192 89 -208 115 -5 8 109 11 411 11 l418 0 -50 -36z
m1455 -298 c184 -33 336 -113 470 -246 297 -298 344 -748 114 -1102 -117 -182
-305 -314 -530 -374 -103 -27 -312 -26 -419 3 -320 87 -551 318 -638 638 -31
114 -31 316 0 430 96 355 376 603 743 658 58 9 190 5 260 -7z m2073 -640 c104
-43 128 -175 47 -256 -66 -66 -156 -67 -221 -1 -124 123 13 325 174 257z
m-4229 -558 c55 -16 138 -99 154 -154 28 -94 8 -169 -63 -239 -101 -102 -229
-102 -330 0 -102 101 -102 229 0 330 70 71 145 90 239 63z m3840 -728 c117
-30 209 -83 297 -170 223 -222 250 -570 65 -825 l-36 -50 0 40 c0 59 -26 149
-61 216 -29 55 -119 151 -164 177 -17 9 -18 14 -8 29 68 98 88 197 59 296 -23
78 -86 154 -161 192 -52 26 -69 30 -144 30 -103 0 -158 -21 -223 -87 -66 -66
-92 -127 -92 -223 -1 -68 3 -88 26 -135 15 -30 33 -63 40 -73 11 -15 10 -20
-7 -29 -45 -26 -135 -122 -164 -177 -35 -67 -61 -157 -61 -216 l0 -40 -36 50
c-76 106 -113 210 -121 340 -25 427 378 761 791 655z m-91 -234 c103 -43 128
-177 48 -257 -65 -65 -157 -65 -222 0 -124 123 13 325 174 257z m-2459 -104
c91 -42 149 -100 194 -190 35 -72 37 -81 37 -172 0 -91 -2 -100 -37 -172 -45
-91 -103 -147 -196 -191 -61 -29 -76 -32 -162 -32 -86 0 -101 3 -162 32 -93
44 -151 100 -196 191 -35 72 -37 81 -37 171 0 87 3 102 32 163 40 85 97 147
172 186 78 42 122 52 213 48 61 -3 92 -11 142 -34z m2494 -378 c74 -24 140
-79 179 -149 18 -33 33 -63 33 -67 0 -5 -139 -8 -310 -8 -170 0 -310 2 -310 5
0 2 5 17 12 32 68 159 237 238 396 187z m277 -420 c-104 -75 -252 -124 -376
-124 -123 0 -299 60 -379 129 l-35 30 420 1 420 0 -50 -36z"/>
<path d="M2432 3261 c-70 -26 -109 -51 -158 -103 -53 -56 -78 -99 -99 -173
-44 -152 21 -336 151 -426 l44 -30 -69 -35 c-165 -82 -282 -259 -298 -449 -5
-69 -4 -74 20 -99 l26 -26 511 0 511 0 26 26 c24 25 25 30 20 99 -7 79 -38
176 -80 248 -43 72 -139 162 -217 201 l-70 35 44 30 c162 112 213 351 111 526
-36 61 -116 132 -183 163 -78 36 -212 42 -290 13z m202 -153 c86 -26 166 -136
166 -228 0 -124 -116 -240 -240 -240 -124 0 -240 116 -240 240 0 63 23 114 75
165 70 71 145 90 239 63z m90 -746 c88 -41 148 -100 191 -185 19 -38 35 -76
35 -83 0 -12 -67 -14 -390 -14 -323 0 -390 2 -390 14 0 32 73 156 114 194 48
45 125 87 183 102 71 18 186 5 257 -28z"/>
</g>
</svg>
