<svg width="16" height="27" viewBox="0 0 16 27" fill="none" xmlns="http://www.w3.org/2000/svg">
<path fill-rule="evenodd" clip-rule="evenodd" d="M11.9717 26.9512H3.10228C1.39155 26.9512 0 25.6896 0 24.1377V11.8164C0 11.1071 0.749816 9.45714 1.98093 6.82434C2.6936 5.30782 3.66295 3.23231 3.67308 2.8135C3.67308 2.60409 3.32013 2.21905 3.08201 1.96404C2.68009 1.53003 2.26465 1.07913 2.52472 0.565739C2.77466 0.0692398 3.4603 0 4.16958 0H10.896C11.791 0.0067551 12.4328 0.111459 12.6743 0.597826C12.9242 1.1129 12.4936 1.57225 12.1136 1.97924C11.8788 2.22749 11.5259 2.6024 11.5259 2.81181C11.5293 3.234 12.475 5.33484 13.1724 6.86656C14.3563 9.47571 15.074 11.1121 15.074 11.8147V24.136C15.074 25.6896 13.6791 26.9512 11.9717 26.9512ZM4.21349 1.71579C4.58333 2.12448 4.97851 2.70373 4.97851 3.30155C4.97851 3.88756 4.43134 5.18116 3.34884 7.53362C2.59058 9.17342 1.56043 11.4161 1.56043 11.9244V23.8185C1.56043 24.7186 2.3626 25.4498 3.34208 25.4498H11.7235C12.7097 25.4498 13.5102 24.7186 13.5102 23.8185V11.9244C13.5102 11.4161 12.5189 9.19031 11.791 7.5674C10.771 5.26898 10.0837 3.88418 10.0837 3.29311C10.0837 2.68853 10.6055 2.12954 10.9804 1.72255C11.0074 1.69046 10.8521 1.60771 10.6984 1.60771H4.35535C4.26584 1.60771 4.18478 1.68202 4.21349 1.71579Z" fill="black"/>
<path fill-rule="evenodd" clip-rule="evenodd" d="M11.6785 22.0671C11.6785 23.251 10.7986 23.5651 9.71276 23.5651H5.38275C4.29686 23.5651 3.4187 23.251 3.4187 22.0671V10.9989C3.4187 9.81507 4.48263 13.5895 6.77092 11.7994C9.0609 10.016 11.6785 9.81507 11.6785 10.9989V22.0671Z" fill="black"/>
</svg>
