<svg width="28" height="21" viewBox="0 0 28 21" fill="none" xmlns="http://www.w3.org/2000/svg">
<path d="M16.457 14.009H15.0764C15.0764 15.9156 16.9305 17.4604 19.2181 17.4604C20.4247 17.4604 21.5112 17.0304 22.2685 16.3436L20.9735 15.6043C20.5262 15.8907 19.9367 16.0806 19.2181 16.0806C17.4468 16.0806 16.457 14.9278 16.457 14.0097V14.009Z" fill="black"/>
<path fill-rule="evenodd" clip-rule="evenodd" d="M10.566 2.87971C11.0043 2.49316 11.3646 1.9713 11.4889 1.47292C11.5593 1.1899 11.5924 0.741909 11.2797 0.380201C10.9601 0.0095188 10.4873 -0.0312078 10.1152 0.0157314C9.87608 0.0457389 9.63553 0.06325 9.39456 0.068193C9.18058 0.0750959 8.92517 0.0840693 8.64354 0.175187C8.35017 0.270446 8.07267 0.437494 7.74065 0.682544C7.52378 0.841678 7.31911 1.01681 7.12837 1.20647C6.0039 0.405741 4.55637 0.0930429 2.28465 0.204178C2.01004 0.206924 1.74777 0.318647 1.55553 0.514769C1.36329 0.71089 1.25684 0.975345 1.25959 1.24996C1.26233 1.52457 1.37405 1.78684 1.57018 1.97908C1.7663 2.17132 2.03075 2.27777 2.30536 2.27503H3.29799C3.35735 2.31575 3.41396 2.3551 3.46711 2.39306L1.90017 4.35347C1.59462 4.37874 1.29849 4.47154 1.03317 4.62517C0.767845 4.7788 0.539944 4.98942 0.36592 5.24184C0.191896 5.49426 0.0760908 5.78217 0.0268657 6.08478C-0.0223595 6.3874 -0.00377653 6.69717 0.0812729 6.99173L0.281455 7.68201C0.406041 8.11306 0.667257 8.49198 1.02579 8.76175C1.38432 9.03152 1.82078 9.17755 2.26947 9.17785H4.42453C4.57475 9.1778 4.72089 9.22676 4.84077 9.31729L6.18199 10.3306C6.29934 10.419 6.42221 10.4928 6.54922 10.5536C7.34788 12.7142 8.20728 14.5545 9.18058 15.7804L9.40147 18.438C9.17293 18.6139 9.00521 18.8569 8.92183 19.1329C8.83846 19.409 8.84362 19.7042 8.93659 19.9772C9.02956 20.2502 9.20567 20.4872 9.44021 20.6549C9.67475 20.8227 9.95593 20.9128 10.2443 20.9127H12.3152C12.4982 20.9127 12.6738 20.8399 12.8033 20.7105C12.9327 20.581 13.0054 20.4054 13.0054 20.2224V14.7001H18.1218C19.0613 15.574 20.1492 16.296 21.6802 16.6543L21.8286 18.4373C21.6 18.613 21.432 18.8559 21.3484 19.1318C21.2648 19.4078 21.2697 19.703 21.3625 19.9761C21.4552 20.2491 21.6311 20.4863 21.8655 20.6543C22.0999 20.8222 22.381 20.9126 22.6694 20.9127H24.7402C24.9233 20.9127 25.0989 20.8399 25.2283 20.7105C25.3578 20.581 25.4305 20.4054 25.4305 20.2224V8.48757C25.4305 6.47194 24.899 5.06722 24.0244 4.1664C23.1498 3.26627 22.026 2.96531 21.0369 2.96531H11.97C11.4523 2.96531 10.9877 2.93356 10.566 2.87902V2.87971ZM4.82144 1.7083C4.84905 1.73177 4.8746 1.75524 4.90014 1.77871C5.02959 1.89686 5.10925 2.05982 5.12297 2.23455C5.13668 2.40927 5.08342 2.58267 4.974 2.71957L2.77614 5.46689C2.7115 5.54783 2.62949 5.61318 2.53616 5.65811C2.44284 5.70304 2.3406 5.72639 2.23703 5.72644H2.07136C1.96429 5.72639 1.85868 5.75126 1.76288 5.79906C1.66708 5.84686 1.58371 5.91629 1.51936 6.00186C1.45501 6.08743 1.41145 6.1868 1.39213 6.29211C1.3728 6.39742 1.37823 6.50577 1.408 6.60862L1.6068 7.2989C1.6484 7.44266 1.73559 7.56899 1.85524 7.65889C1.97489 7.74878 2.12051 7.79735 2.27016 7.79729H4.42522C4.87565 7.79728 5.31381 7.94414 5.67325 8.2156L7.01447 9.22893C7.09592 9.28968 7.17876 9.32833 7.2609 9.34904C7.36968 9.37704 7.46998 9.43116 7.5531 9.5067C7.63622 9.58224 7.69965 9.67693 7.73789 9.78254C8.59936 12.1613 9.4705 13.9891 10.3789 15.0639C10.4714 15.1736 10.5274 15.3095 10.5391 15.4525L10.8179 18.7935C10.8324 18.9661 10.7815 19.1379 10.6753 19.2747C10.569 19.4116 10.4152 19.5034 10.2443 19.5321H11.6249V14.0098C11.6249 13.8268 11.6976 13.6512 11.827 13.5217C11.9565 13.3923 12.1321 13.3195 12.3152 13.3195H18.3965C18.5766 13.3196 18.7495 13.3899 18.8784 13.5156C19.8309 14.4426 20.8539 15.1336 22.4388 15.4001C22.59 15.4256 22.7283 15.5007 22.8321 15.6136C22.9358 15.7264 22.999 15.8706 23.0118 16.0234L23.243 18.7942C23.2573 18.9667 23.2063 19.1383 23.1001 19.275C22.9938 19.4117 22.8401 19.5034 22.6694 19.5321H24.05V8.48757C24.05 6.70664 23.5833 5.69469 23.0339 5.12865C22.4844 4.56262 21.7568 4.34587 21.0369 4.34587H11.97C10.3893 4.34587 9.22959 4.0815 8.26043 3.75085C8.11759 3.70213 7.99465 3.60794 7.91043 3.4827C7.82621 3.35746 7.78536 3.20807 7.79413 3.0574C7.8029 2.90674 7.86081 2.76309 7.95899 2.64847C8.05717 2.53385 8.19021 2.45456 8.33774 2.42275C8.80921 2.32127 9.25582 2.14594 9.52848 1.94507C9.72322 1.79955 9.88998 1.61994 10.0207 1.41493C9.79562 1.43564 9.61753 1.44185 9.47395 1.44669H9.47188C9.22337 1.45566 9.1509 1.46187 9.06944 1.4881C8.98661 1.51571 8.84924 1.5806 8.55932 1.7939C8.2059 2.05414 7.94083 2.33094 7.78621 2.55942C7.72992 2.64202 7.65637 2.71142 7.57064 2.76281C7.4849 2.8142 7.38903 2.84635 7.28965 2.85705C7.19027 2.86775 7.08975 2.85674 6.99504 2.82478C6.90033 2.79282 6.81369 2.74067 6.74112 2.67194C6.26413 2.22118 5.69741 1.8864 4.82213 1.7083H4.82144Z" fill="black"/>
<path d="M27.5012 11.9392C27.5012 12.7019 27.1919 13.3197 26.8109 13.3197C26.4299 13.3197 26.1206 12.7019 26.1206 11.9392C26.1206 11.1764 26.4299 10.5586 26.8109 10.5586C27.1919 10.5586 27.5012 11.1764 27.5012 11.9392Z" fill="black"/>
<path fill-rule="evenodd" clip-rule="evenodd" d="M19.5637 4.34541V2.96484C19.6017 2.96484 23.1097 2.96484 23.1622 2.96622C24.5545 2.98969 25.6858 3.26857 26.4569 4.00924C27.2376 4.75958 27.502 5.84056 27.502 7.10654H26.1214C26.1214 5.99656 25.8846 5.37462 25.5001 5.00532C25.1053 4.62566 24.4067 4.36819 23.1394 4.34679H22.9848L19.5637 4.34541Z" fill="black"/>
<path d="M26.1206 7.10693H27.5012L27.156 11.9389H26.4657L26.1206 7.10693Z" fill="black"/>
<path fill-rule="evenodd" clip-rule="evenodd" d="M14.6108 15.0324L15.8175 14.5396L16.34 15.8166L15.1341 16.3108L14.6108 15.0324Z" fill="black"/>
<path fill-rule="evenodd" clip-rule="evenodd" d="M16.3718 17.3628L17.1028 16.0029L18.3191 16.6573L17.5874 18.0172L16.3725 17.3628H16.3718Z" fill="black"/>
<path fill-rule="evenodd" clip-rule="evenodd" d="M19.5172 18.2306L19.2239 16.7147L20.5796 16.4524L20.8723 17.9683L19.5172 18.2306Z" fill="black"/>
<path fill-rule="evenodd" clip-rule="evenodd" d="M18.0628 13.5154C17.9926 13.5772 17.9362 13.6532 17.8974 13.7384C17.8586 13.8236 17.8383 13.916 17.8378 14.0096H19.2184C19.2184 14.1228 19.1894 14.3623 18.9768 14.5501C18.9021 14.6156 18.8147 14.665 18.72 14.695C18.6253 14.7251 18.5254 14.7352 18.4266 14.7247C18.2943 14.7086 18.1671 14.6638 18.0539 14.5936L18.0518 14.5922C17.9034 14.4975 17.7626 14.3914 17.6307 14.2747C17.259 13.9493 16.8998 13.6099 16.5539 13.2572C15.7739 12.4723 14.8675 11.4811 14.5051 10.9447L15.6482 10.1716C15.9292 10.5865 16.7485 11.4942 17.5327 12.2839C17.8521 12.6098 18.1837 12.9237 18.5267 13.2248C18.653 13.3317 18.7269 13.3856 18.7552 13.4042C18.6957 13.3758 18.6317 13.358 18.5661 13.3518C18.4754 13.343 18.384 13.3529 18.2974 13.3811C18.2108 13.4092 18.131 13.455 18.0628 13.5154Z" fill="black"/>
</svg>
