<svg width="20" height="18" viewBox="0 0 20 18" fill="none" xmlns="http://www.w3.org/2000/svg">
<path d="M19.8557 16.4434C18.5678 14.351 16.5703 12.7286 14.1852 11.8378C15.3561 11.0096 16.221 9.855 16.6574 8.53749C17.0938 7.21998 17.0796 5.80636 16.6168 4.49689C16.154 3.18741 15.266 2.04847 14.0787 1.24138C12.8913 0.434301 11.4648 0 10.0012 0C8.53764 0 7.11113 0.434301 5.9238 1.24138C4.73647 2.04847 3.8485 3.18741 3.38568 4.49689C2.92286 5.80636 2.90865 7.21998 3.34506 8.53749C3.78148 9.855 4.6464 11.0096 5.81729 11.8378C3.43226 12.7286 1.43481 14.3509 0.147004 16.4432C0.00141068 16.6816 -0.0379662 16.9647 0.0375162 17.2303C0.112999 17.496 0.297173 17.7226 0.549616 17.8604C0.802058 17.9981 1.10214 18.0358 1.38401 17.9651C1.66587 17.8944 1.90648 17.7212 2.05304 17.4834C2.85878 16.1678 4.01746 15.0754 5.41266 14.3159C6.80785 13.5564 8.39042 13.1566 10.0014 13.1566C11.6123 13.1566 13.1949 13.5565 14.5901 14.316C15.9852 15.0755 17.1439 16.1679 17.9496 17.4835C18.0969 17.7199 18.3374 17.8917 18.6185 17.9615C18.8997 18.0314 19.1987 17.9935 19.4503 17.8562C19.702 17.7189 19.8858 17.4933 19.9618 17.2286C20.0377 16.9639 19.9996 16.6817 19.8557 16.4434ZM5.22997 6.58012C5.22997 5.69016 5.5098 4.82019 6.03407 4.08021C6.55835 3.34024 7.30352 2.7635 8.17535 2.42293C9.04719 2.08235 10.0065 1.99324 10.9321 2.16687C11.8576 2.34049 12.7078 2.76904 13.375 3.39834C14.0423 4.02764 14.4967 4.82941 14.6808 5.70227C14.8649 6.57513 14.7704 7.47987 14.4093 8.30209C14.0482 9.12431 13.4367 9.82707 12.652 10.3215C11.8674 10.8159 10.9449 11.0798 10.0012 11.0798C8.73626 11.0785 7.5235 10.604 6.62902 9.76041C5.73455 8.91684 5.2314 7.77311 5.22997 6.58012Z" fill="black"/>
</svg>
